<svg width="80" height="80" viewBox="0 0 80 80" fill="none" xmlns="http://www.w3.org/2000/svg">
<path d="M40 80C62.0914 80 80 62.0914 80 40C80 17.9086 62.0914 0 40 0C17.9086 0 0 17.9086 0 40C0 62.0914 17.9086 80 40 80Z" fill="#F5DF4D"/>
<path d="M76.4738 56.4435C78.7383 51.4279 79.9991 45.861 79.9991 40C80 17.9085 62.0915 0 40 0C34.139 0 28.5722 1.26075 23.5565 3.52522C48.794 11.291 68.709 31.205 76.4738 56.4435Z" fill="#DDC945"/>
<path d="M25.6873 29.8593H28.2948V22.156H30.3618V33.0747H28.2948V32.1501H20.9971V33.0747H18.9301V22.156H20.9971V29.8593H23.6212V18.9601H25.6873V29.8593Z" fill="#939597"/>
<path d="M23.0434 39.4283H30.3196V41.7201H29.5582V44.0696C29.5582 44.7635 29.5006 45.3694 29.3862 45.8894C29.2709 46.4093 29.0793 46.8432 28.8155 47.1892C28.5506 47.5361 28.2046 47.8 27.7785 47.9789C27.3524 48.1587 26.8334 48.2486 26.2226 48.2486H25.9284L25.4447 45.9568H26.1874C26.7533 45.9568 27.1354 45.8033 27.3368 45.4955C27.5391 45.1867 27.6407 44.7117 27.6407 44.0706V41.7211H23.0424V43.8008C23.0424 44.6227 22.9525 45.4437 22.7736 46.2656C22.5948 47.0866 22.328 47.8635 21.9703 48.5956L20.1896 47.6329C20.5248 47.0299 20.7633 46.4161 20.9069 45.7936C21.0516 45.171 21.1239 44.5123 21.1239 43.8194V41.7201H18.9279V39.4283H21.1239V34.7303H23.0424V39.4283H23.0434Z" fill="#939597"/>
<path d="M18.9288 62.5156L24.0911 50.2492L25.905 51.1738L21.724 60.9939L26.8501 59.4918L25.3723 55.8913L27.2234 54.9863L30.6401 63.1509L28.8067 64.0559L27.7385 61.5911L19.6951 63.8057L18.9288 62.5156Z" fill="#939597"/>
<path d="M30.6401 71.4308H25.9998V72.6251C25.9998 73.2545 25.9539 73.9601 25.8571 74.743C25.7623 75.5258 25.5434 76.2774 25.2013 76.9957C24.8573 77.715 24.3462 78.3503 23.6689 78.9025C22.9906 79.4547 22.0582 79.8211 20.8776 80L20.3078 77.6896C21.0662 77.6896 21.6653 77.5195 22.1032 77.1794C22.541 76.8393 22.8694 76.4122 23.0883 75.8982C23.3073 75.3851 23.4411 74.8368 23.4929 74.2523C23.5447 73.6689 23.5692 73.1265 23.5692 72.6261V71.4318H18.9288V69.14H23.5692V65.7125H25.9988V69.14H30.6392V71.4308H30.6401Z" fill="#939597"/>
<path d="M32.24 22.4081L33.4382 18.9601L33.8604 19.2201L32.8889 21.9801L34.0793 21.5579L33.7363 20.5463L34.1663 20.2912L34.9599 22.587L34.5338 22.8411L34.2865 22.1482L32.4179 22.7707L32.24 22.4081Z" fill="#939597"/>
<path d="M32.7756 29.2338H32.24V25.7428H33.272V25.2668H33.8125V25.7428H34.9599V26.3868H34.8446V28.059C34.8446 28.2535 34.828 28.4245 34.7967 28.5702C34.7644 28.7168 34.7116 28.838 34.6374 28.9357C34.5631 29.0334 34.4663 29.1077 34.3481 29.1575C34.2289 29.2084 34.0842 29.2338 33.9142 29.2338H33.8418L33.707 28.5897H33.9044C34.0617 28.5897 34.1692 28.5467 34.2249 28.4597C34.2816 28.3728 34.31 28.2398 34.31 28.059V26.3868H32.7765V29.2338H32.7756Z" fill="#939597"/>
<path d="M32.5254 32.1188H34.6745V32.7629H33.8594V35.085H34.9599V35.7291H32.24V35.085H33.3356V32.7629H32.5254V32.1188Z" fill="#939597"/>
<path d="M32.7042 41.9488H32.24V38.7441H33.315V38.2574H33.7627V38.7441H34.9599V39.3931H34.8387V40.99C34.8387 41.1132 34.8299 41.2334 34.8113 41.3526C34.7937 41.4719 34.7615 41.5803 34.7146 41.6771C34.6686 41.7748 34.6061 41.8569 34.5269 41.9234C34.4468 41.9908 34.3471 42.0348 34.2279 42.0563L34.1106 41.4122C34.2025 41.3946 34.2699 41.3507 34.3109 41.2823C34.353 41.2138 34.3735 41.1161 34.3735 40.99V39.3931H33.7627V42.4844H33.315V39.3931H32.7042V41.9488Z" fill="#939597"/>
<path d="M32.3279 45.1094H34.4331V45.7535H33.1499V46.3927H34.9599V47.0426H33.1499V47.5459C33.1499 47.7258 33.1753 47.8597 33.2242 47.9467C33.274 48.0327 33.3708 48.0766 33.5144 48.0766H34.8016L34.6833 48.7207H33.5056C33.3502 48.7207 33.2183 48.6953 33.1108 48.6445C33.0023 48.5936 32.9143 48.5194 32.8469 48.4226C32.7795 48.3259 32.7306 48.2037 32.7013 48.0571C32.672 47.9105 32.6573 47.7404 32.6573 47.5459V47.0426H32.24V46.3927H32.6573V45.7535H32.3279V45.1094V45.1094Z" fill="#939597"/>
<path d="M52.8518 18.7862C44.4136 18.7862 37.5723 25.6265 37.5723 34.0657C37.5723 42.5049 44.4136 49.3452 52.8518 49.3452C61.29 49.3452 68.1313 42.5049 68.1313 34.0657C68.1313 25.6265 61.29 18.7862 52.8518 18.7862ZM52.8518 43.5086C47.6368 43.5086 43.4089 39.2807 43.4089 34.0657C43.4089 28.8507 47.6368 24.6227 52.8518 24.6227C58.0668 24.6227 62.2947 28.8507 62.2947 34.0657C62.2947 39.2807 58.0678 43.5086 52.8518 43.5086Z" fill="#939597"/>
<path d="M55.0997 39.9023C58.3231 39.9023 60.9362 37.2891 60.9362 34.0657C60.9362 30.8422 58.3231 28.2291 55.0997 28.2291C51.8762 28.2291 49.2631 30.8422 49.2631 34.0657C49.2631 37.2891 51.8762 39.9023 55.0997 39.9023Z" fill="#939597"/>
</svg>
